<?xml version="1.0" encoding="utf-8"?>
<!-- Generator: Adobe Illustrator 26.0.3, SVG Export Plug-In . SVG Version: 6.00 Build 0)  -->
<svg version="1.1" id="Слой_1" xmlns="http://www.w3.org/2000/svg" xmlns:xlink="http://www.w3.org/1999/xlink" x="0px" y="0px"
	 viewBox="0 0 1366 768" style="enable-background:new 0 0 1366 768;" xml:space="preserve">
<style type="text/css">
	.st0{fill:none;stroke:#E5E5E5;stroke-miterlimit:10;}
</style>
<path class="st0" d="M-75.8,495.9c0,0,226.1,138.5,764.8,109.4s698.9-133.5,698.9-133.5"/>
<path class="st0" d="M-235.9,134.6c0,0,274.9-215.9,879.1-87.9S1413.6,384,1413.6,384"/>
<path class="st0" d="M-14.6,332c0,0,195,162.9,704.2,194.5s672.6-53.9,672.6-53.9"/>
<path class="st0" d="M-41.6,217.2c0,0,178.7,180.6,682.6,260.3s674.7,10,674.7,10"/>
<path class="st0" d="M-51.9,393.4c0,0,200.2,156.4,710.2,171.3s670.4-75.9,670.4-75.9"/>
<path class="st0" d="M-178.1,609.3c0,0,218.3,130,726.1,81s655.6-159.4,655.6-159.4"/>
<path class="st0" d="M-75.8,706.9c0,0,241.6,125.4,773,28.3s677.7-231.6,677.7-231.6"/>
</svg>
